<?xml version="1.0" encoding="utf-8"?>
<!-- Generator: Adobe Illustrator 25.0.0, SVG Export Plug-In . SVG Version: 6.00 Build 0)  -->
<svg version="1.1" id="Layer_1" xmlns="http://www.w3.org/2000/svg" xmlns:xlink="http://www.w3.org/1999/xlink" x="0px" y="0px"
	 viewBox="0 0 220 600" style="enable-background:new 0 0 220 600;" xml:space="preserve">
<style type="text/css">
	.st0{fill:#580AC7;}
	.st1{fill:#16C8C7;fill-opacity:0.44;}
	.st2{fill:#FFFFFF;fill-opacity:0.44;}
</style>
<path class="st0" d="M102.4,306.3c-21.6-23.2-21-58.5,1.4-80.7l165-164c24.2-24,64.4-23.5,88.2,1.1l158,163.4
	c21.4,22.1,22.2,56.2,1.8,79L358.2,482.1c-23.9,26.7-66.7,27-91.3,0.6L102.4,306.3z"/>
<path class="st1" d="M221.4,482.5c4.5-4.7,12.2-4.8,17.3-0.2c5.1,4.5,5.5,12,1,16.7c-4.5,4.7-12.2,4.8-17.3,0.2
	C217.4,494.6,216.9,487.1,221.4,482.5z"/>
<path class="st2" d="M222.9,400.6c4.5-4.7,12.2-4.8,17.3-0.2c5.1,4.5,5.5,12,1,16.7c-4.5,4.7-12.2,4.8-17.3,0.2
	C218.9,412.8,218.4,405.3,222.9,400.6z"/>
<path class="st1" d="M180,445.1c4.5-4.7,12.2-4.8,17.3-0.2c5.1,4.5,5.5,12,1,16.7c-4.5,4.7-12.2,4.8-17.3,0.2
	C175.9,457.3,175.5,449.8,180,445.1z"/>
<path class="st2" d="M224.4,318.8c4.5-4.7,12.2-4.8,17.3-0.2c5.1,4.5,5.5,12,1,16.7c-4.5,4.7-12.2,4.8-17.3,0.2
	C220.3,330.9,219.9,323.4,224.4,318.8z"/>
<path class="st2" d="M181.4,363.3c4.5-4.7,12.2-4.8,17.3-0.2c5.1,4.5,5.5,12,1,16.7c-4.5,4.7-12.2,4.8-17.3,0.2
	C177.4,375.4,177,367.9,181.4,363.3z"/>
<path class="st1" d="M138.5,407.8c4.5-4.7,12.2-4.8,17.3-0.2c5.1,4.5,5.5,12,1,16.7c-4.5,4.7-12.2,4.8-17.3,0.2
	C134.5,419.9,134,412.4,138.5,407.8z"/>
<path class="st2" d="M225.9,236.9c4.5-4.7,12.2-4.8,17.3-0.2c5.1,4.5,5.5,12,1,16.7c-4.5,4.7-12.2,4.8-17.3,0.2
	C221.8,249,221.4,241.6,225.9,236.9z"/>
<path class="st2" d="M182.9,281.4c4.5-4.7,12.2-4.8,17.3-0.2c5.1,4.5,5.5,12,1,16.7c-4.5,4.7-12.2,4.8-17.3,0.2
	C178.9,293.5,178.4,286.1,182.9,281.4z"/>
<path class="st2" d="M140,325.9c4.5-4.7,12.2-4.8,17.3-0.2c5.1,4.5,5.5,12,1,16.7c-4.5,4.7-12.2,4.8-17.3,0.2
	C136,338,135.5,330.6,140,325.9z"/>
<path class="st1" d="M97.1,370.4c4.5-4.7,12.2-4.8,17.3-0.2c5.1,4.5,5.5,12,1,16.7c-4.5,4.7-12.2,4.8-17.3,0.2
	C93.1,382.5,92.6,375.1,97.1,370.4z"/>
</svg>
