<?xml version="1.0" encoding="utf-8"?>
<!-- Generator: Adobe Illustrator 25.0.0, SVG Export Plug-In . SVG Version: 6.00 Build 0)  -->
<svg version="1.1" id="Layer_1" xmlns="http://www.w3.org/2000/svg" xmlns:xlink="http://www.w3.org/1999/xlink" x="0px" y="0px"
	 viewBox="0 0 127 228" style="enable-background:new 0 0 127 228;" xml:space="preserve">
<style type="text/css">
	.st0{fill:#580AC7;}
</style>
<path class="st0" d="M117.5,209.2c5.1,0,9.2,4.1,9.2,9.2c0,5.1-4.1,9.2-9.2,9.2c-5.1,0-9.2-4.1-9.2-9.2
	C108.3,213.3,112.5,209.2,117.5,209.2z"/>
<path class="st0" d="M69.1,209.2c5.1,0,9.2,4.1,9.2,9.2c0,5.1-4.1,9.2-9.2,9.2c-5.1,0-9.2-4.1-9.2-9.2
	C59.9,213.3,64,209.2,69.1,209.2z"/>
<path class="st0" d="M20.6,209.2c5.1,0,9.2,4.1,9.2,9.2c0,5.1-4.1,9.2-9.2,9.2c-5.1,0-9.2-4.1-9.2-9.2
	C11.4,213.3,15.5,209.2,20.6,209.2z"/>
<path class="st0" d="M117.5,167.3c5.1,0,9.2,4.1,9.2,9.2s-4.1,9.2-9.2,9.2c-5.1,0-9.2-4.1-9.2-9.2S112.5,167.3,117.5,167.3z"/>
<path class="st0" d="M69.1,167.3c5.1,0,9.2,4.1,9.2,9.2s-4.1,9.2-9.2,9.2c-5.1,0-9.2-4.1-9.2-9.2S64,167.3,69.1,167.3z"/>
<path class="st0" d="M20.6,167.3c5.1,0,9.2,4.1,9.2,9.2s-4.1,9.2-9.2,9.2c-5.1,0-9.2-4.1-9.2-9.2S15.5,167.3,20.6,167.3z"/>
<path class="st0" d="M117.5,125.5c5.1,0,9.2,4.1,9.2,9.2c0,5.1-4.1,9.2-9.2,9.2c-5.1,0-9.2-4.1-9.2-9.2
	C108.3,129.6,112.5,125.5,117.5,125.5z"/>
<path class="st0" d="M69.1,125.5c5.1,0,9.2,4.1,9.2,9.2c0,5.1-4.1,9.2-9.2,9.2c-5.1,0-9.2-4.1-9.2-9.2
	C59.9,129.6,64,125.5,69.1,125.5z"/>
<path class="st0" d="M20.6,125.5c5.1,0,9.2,4.1,9.2,9.2c0,5.1-4.1,9.2-9.2,9.2c-5.1,0-9.2-4.1-9.2-9.2
	C11.4,129.6,15.5,125.5,20.6,125.5z"/>
<path class="st0" d="M117.5,83.7c5.1,0,9.2,4.1,9.2,9.2c0,5.1-4.1,9.2-9.2,9.2c-5.1,0-9.2-4.1-9.2-9.2
	C108.3,87.8,112.5,83.7,117.5,83.7z"/>
<path class="st0" d="M69.1,83.7c5.1,0,9.2,4.1,9.2,9.2c0,5.1-4.1,9.2-9.2,9.2c-5.1,0-9.2-4.1-9.2-9.2C59.9,87.8,64,83.7,69.1,83.7z"
	/>
<path class="st0" d="M20.6,83.7c5.1,0,9.2,4.1,9.2,9.2c0,5.1-4.1,9.2-9.2,9.2c-5.1,0-9.2-4.1-9.2-9.2C11.4,87.8,15.5,83.7,20.6,83.7
	z"/>
<path class="st0" d="M117.5,41.8c5.1,0,9.2,4.1,9.2,9.2c0,5.1-4.1,9.2-9.2,9.2c-5.1,0-9.2-4.1-9.2-9.2
	C108.3,46,112.5,41.8,117.5,41.8z"/>
<path class="st0" d="M69.1,41.8c5.1,0,9.2,4.1,9.2,9.2c0,5.1-4.1,9.2-9.2,9.2c-5.1,0-9.2-4.1-9.2-9.2C59.9,46,64,41.8,69.1,41.8z"/>
<path class="st0" d="M20.6,41.8c5.1,0,9.2,4.1,9.2,9.2c0,5.1-4.1,9.2-9.2,9.2c-5.1,0-9.2-4.1-9.2-9.2C11.4,46,15.5,41.8,20.6,41.8z"
	/>
<path class="st0" d="M117.5,0c5.1,0,9.2,4.1,9.2,9.2c0,5.1-4.1,9.2-9.2,9.2c-5.1,0-9.2-4.1-9.2-9.2C108.3,4.1,112.5,0,117.5,0z"/>
<path class="st0" d="M69.1,0c5.1,0,9.2,4.1,9.2,9.2c0,5.1-4.1,9.2-9.2,9.2c-5.1,0-9.2-4.1-9.2-9.2C59.9,4.1,64,0,69.1,0z"/>
<path class="st0" d="M20.6,0c5.1,0,9.2,4.1,9.2,9.2c0,5.1-4.1,9.2-9.2,9.2c-5.1,0-9.2-4.1-9.2-9.2C11.4,4.1,15.5,0,20.6,0z"/>
</svg>
