<svg id="Layer_1" data-name="Layer 1" xmlns="http://www.w3.org/2000/svg" viewBox="0 0 1440 768"><defs><style>.cls-1{fill:#30a2ff;}.cls-2{fill:#2b97e0;}.cls-3{fill:#fff;}.cls-4{fill:#ffc4b2;}.cls-5{fill:#d7dad9;}.cls-6{fill:#ff9f8c;}.cls-7{fill:#703434;}.cls-8{fill:#eaedec;}.cls-9{fill:#5ebcfc;}.cls-10{fill:#bbb;}.cls-11{fill:#868686;}.cls-12{fill:#353535;}.cls-13{fill:#1e1e1e;}.cls-14{fill:#3f3f3f;}.cls-15{fill:#515151;}.cls-16{fill:#f5475d;}.cls-17{fill:#e73150;}.cls-18{fill:#ff647e;}.cls-19{fill:#f88c3d;}.cls-20{fill:#ee7929;}.cls-21{fill:#df6a1b;}.cls-22{fill:#ffae73;}.cls-23{fill:#622c2a;}.cls-24{fill:#6299cb;}.cls-25{fill:#7cafd7;}.cls-26{fill:#d21c44;}.cls-27{fill:#636363;}.cls-28,.cls-32{fill:#666;}.cls-29{fill:#444;}.cls-30{fill:#59b1e2;}.cls-31{fill:#9f9f9f;}.cls-32{opacity:0.5;}.cls-33{fill:#f1b700;}.cls-34{fill:#fdca01;}.cls-35{fill:#ffd450;}.cls-36{fill:#80ad05;}.cls-37{fill:#f1c08a;}.cls-38{fill:#fdd7a6;}.cls-39{fill:#e1a76f;}.cls-40{fill:#fcb82a;}.cls-41{fill:#ffc3b1;}.cls-42{fill:#ff9e8b;}.cls-43{fill:#91c7e9;}.cls-44{fill:#ffe26c;}.cls-45{fill:#fdb92a;}.cls-46{fill:#9d9d9d;}.cls-47{fill:#ffea96;}.cls-48{fill:#d2d2d2;}.cls-49{fill:#99c00e;}</style></defs><rect class="cls-1" width="1440" height="768"/><path class="cls-2" d="M1003.13,633c-33.45,0-60.56,15.27-60.56,34.09s27.11,34.09,60.56,34.09,60.57-15.26,60.57-34.09S1036.59,633,1003.13,633Z"/><path class="cls-2" d="M802.71,523.09c-33.45,0-60.57,15.26-60.57,34.09s27.12,34.09,60.57,34.09,60.57-15.26,60.57-34.09S836.16,523.09,802.71,523.09Z"/><polygon class="cls-2" points="1440 624.02 1233.54 740.65 746.1 461.07 886.55 381.43 1227.24 576.15 1376.97 588.42 1440 624.02"/><circle class="cls-3" cx="1210.45" cy="311.84" r="139.87"/><circle class="cls-3" cx="1050.66" cy="202.12" r="31.48" transform="translate(179.81 823.69) rotate(-46.41)"/><path class="cls-3" d="M821.07,121A21.87,21.87,0,1,1,799.2,99.16,21.87,21.87,0,0,1,821.07,121Z"/><path class="cls-3" d="M1269.94,132.66a15.74,15.74,0,1,1-15.74-15.74A15.74,15.74,0,0,1,1269.94,132.66Z"/><circle class="cls-3" cx="788.16" cy="282.68" r="119.9"/><path class="cls-4" d="M1186.71,274.66l-16.81,28.79c-7.09,3.87-21.16,11.65-28,15.45a77.48,77.48,0,0,0-13.77,2.21c-6,1.51-7.36,3.62-8.28,8.55s-.61,9.65,0,11.59,7.36-1,9.51-4.89,2.56-4.94,3.55-5.66a10.51,10.51,0,0,1,4.27-.88,34.1,34.1,0,0,0-3.92,5.55c-.16,1.3-.21,2,.7,2.24.94-.88,2.46-5.22,5-7.27a23,23,0,0,1,9.36-4.07c10-2.08,26.93-3.44,31.87-7.89,7.36-6.64,20.3-26.82,20.3-26.82Z"/><path class="cls-5" d="M1217.11,252.48s-5.57-3.78-15.39,0-19.94,25.74-19.94,26.48,9.88,11.85,17,12.59S1217.11,252.48,1217.11,252.48Z"/><path class="cls-6" d="M1196.81,416.69s2.92,18.4,3,26.63a108.53,108.53,0,0,0,2.05,22c1.7,9.55,4.23,47.89,4.29,60.56s-7.71,24.47-10.6,29,6.3,11.74,13.28,5.06,7.7-8,11.64-10.07,6.86-11.11,3.75-21.1-1.6-29.72,1.71-47-1.5-39.23.44-44.39S1196.81,416.69,1196.81,416.69Z"/><path class="cls-7" d="M1195.59,554.93s-8.59,7.16-11.46,10.65,6,8.63,14.48,5.69,15.41-10.93,22.12-16.92,8.38-8,8-14.74c-.16-3.32-3.58-6.82-3.58-6.82s-2.1,13.69-11.74,19.42C1204.25,557.68,1200.46,558.52,1195.59,554.93Z"/><path class="cls-4" d="M1223.68,431.55s1,18.49,1.15,26.72,1.42,10.87,3.86,20.26,4.31,49.55,4.37,62.22-7.71,24.46-10.6,29,6.3,11.74,13.28,5.06,7.7-8,11.64-10.07,6.86-11.11,3.75-21.1-1.6-29.72,1.71-47-2.2-39.34-1-44.72c3-13.24,10.11-33.62,2.66-38.09C1246.71,409.21,1223.68,431.55,1223.68,431.55Z"/><path class="cls-7" d="M1222.46,569.79s-8.59,7.16-11.46,10.65,6,8.63,14.48,5.69,15.41-10.93,22.12-16.93,8.38-8,8.05-14.73c-.16-3.32-3.58-6.82-3.58-6.82s-2.1,13.68-11.75,19.42C1231.12,572.54,1227.33,573.38,1222.46,569.79Z"/><path class="cls-7" d="M1191.77,353.91S1191,367,1190.68,384c-.42,20.81,2.8,45.63,2.8,45.63s30.94,23.94,41.92,20A55.86,55.86,0,0,0,1262,429.37s.41-47.47-8.33-78.47S1192.46,337.73,1191.77,353.91Z"/><path class="cls-8" d="M1264.8,276.88c-1.63-6.48-21.48-20.09-21.48-20.09s-11.09,8.84-15,11.9c-3.74,2.93-10,10.45-10.51,11.09h-.1a84.71,84.71,0,0,1,4.71-21.73c1.22-3.32-.63-13.06-.63-13.06s-1.56-.39-3.8-.79c-3.38,3.74-10,13.66-13.61,17.78-3.47,4-14.35,17.89-10.56,30.7,1.13,3.81-.08,5.57,1.94,10.28,2.26,5.29,2.12,15.38,1.83,20.85-.33,6.28-6.18,22.85-6.18,22.85s14.43,16.71,29.89,16c18.06-.8,30.86-13.55,30.86-13.55s-4.32-27.32-3.74-38.6C1248.43,310.53,1270.18,298.3,1264.8,276.88Z"/><path class="cls-9" d="M1196.7,272.34l16.77-24.68,5.36,1.63s-5.66,8-10.3,15.89c-2,3.44-6.22,11.18-6.22,11.18Z"/><path class="cls-9" d="M1225.23,285.28s10.44-17.4,12.74-22.28a86.94,86.94,0,0,0,3.78-10s2.94.08,3.1,0,2.44,1.72.79,7.22c-2.17,7.26-14,26.93-14,26.93Z"/><path class="cls-7" d="M1198.72,220.93a49.75,49.75,0,0,0,.75,15.17,42.44,42.44,0,0,0,3.75,9.93l19.73-9.17Z"/><path class="cls-6" d="M1220.63,246.48s.15,11.17-1.83,17.12c-1.65,2.58-3.32,10.71-2.33,17.79,3.66-2.07,9.41-8.7,13.11-11.67,8.39-6.72,11.76-13.29,11.76-13.29l1.41-31.54Z"/><path class="cls-4" d="M1232,206.65c-7.57-5.21-24.94-6.15-30.38,12-5.7,19.05,12.38,41.62,21.22,37.21,5-2.47,15.2-10.9,17.71-20.9C1243.4,223.71,1237.9,210.69,1232,206.65Z"/><path class="cls-7" d="M1247.33,211c-3.29-5.43-10.76-12.71-16.09-14.61-10.67-3.8-17.69.25-27.11,9.8-5.66,5.74-8.07,12.32-7.58,22.52,0,0,15.76,10.13,25,11.58,4.29.67,10-2.14,13.4-4,.63,4.66,1.3,10,1.42,12.47a71.76,71.76,0,0,1-1,12.49s13.6-3.28,17.34-9.4S1253.3,220.79,1247.33,211Z"/><path class="cls-9" d="M1190.64,296.37c1.44,7.74,2.8,12.75,4,25.34.65,6.76-3.46,21.24-4.59,34.39-2.16,25-2.61,51.6-2.69,56.52-.34,20.38,0,44.38,0,44.38s18.26,21.08,48.12,14.73,31.1-19.22,31.1-19.22.16-70.91-3-86.54c-2.56-12.77-9.72-40.7-9.72-40.7a15.55,15.55,0,0,1-7.63,1.2c-6.57-1-11.68-4.24-13.15-17.88-.74-6.95-1.47-15.8-.93-22.37-14.73-5.31-25.82-8.61-34.69-15C1190.72,281.52,1189.14,288.34,1190.64,296.37Z"/><path class="cls-4" d="M1264.86,274.68c-4.15-9.12-15.33,1.67-16.88,5.92-3.52,9.67-2.6,24.76-3.24,32.47-.42,5.11.6,19.48.6,19.48s-15.53,39.59-21.67,45.83-12.24,8.26-15.27,10.85-2.67,5.85-.27,4.28a44.13,44.13,0,0,1,6.85-3.28s-6.57,6.51-7.24,12.06c-.4,3.35,2.54,6.81,12.3,1.62,6.94-3.68,13.87-18.7,17.08-22s19.79-23.31,23.64-34C1262.06,344.29,1272.81,292.16,1264.86,274.68Z"/><path class="cls-5" d="M1254.32,265.12c-4.44-1.42-10.19,14.8-11.57,25.33a147.8,147.8,0,0,0-1.41,16.06s7.1,6.19,16.46,5.33,9.81-5.17,11.83-8.39C1269.63,296,1273.29,271.18,1254.32,265.12Z"/><polygon class="cls-10" points="809.57 331.92 809.57 474.04 1229.4 716.27 1229.4 572.72 809.57 331.92"/><polygon class="cls-11" points="1407.22 472.27 1229.4 572.72 1229.4 716.27 1407.22 616.67 1407.22 472.27"/><polygon class="cls-12" points="809.57 357.95 809.57 377.18 1229.4 619.42 1229.4 598.75 809.57 357.95"/><polygon class="cls-13" points="1407.22 498.3 1229.4 598.75 1229.4 619.42 1407.22 519.81 1407.22 498.3"/><polygon class="cls-12" points="809.57 434.51 809.57 441.6 1229.4 683.83 1229.4 675.31 809.57 434.51"/><polygon class="cls-13" points="1407.22 574.86 1229.4 675.31 1229.4 683.83 1407.22 584.22 1407.22 574.86"/><polygon class="cls-5" points="1407.22 472.27 1229.4 572.72 809.57 331.92 930.54 263.32 1223.97 431.04 1352.93 441.61 1407.22 472.27"/><path class="cls-14" d="M972,247.05v43.27c0,2.95,1.81,6.4,4,7.67s4-.09,4-3V249C977.31,247.9,974.59,248.4,972,247.05Z"/><polygon class="cls-14" points="978.57 298.24 976.77 299.29 976.61 298.1 978.64 297.43 978.57 298.24"/><path class="cls-15" d="M974.13,299.09h0c-2.21-1.27-4-4.72-4-7.67V245.85l8,4.64v45.57C978.15,299,976.34,300.37,974.13,299.09Z"/><path class="cls-16" d="M1008.09,354.05,940,314.74c-2.64-1.53-7.3-1.34-10.35.43l-39.29,22.68a5.51,5.51,0,0,0-2.07,1.94c-1-1.51-.29-3.42,2.07-4.78l39.29-22.68c3.05-1.76,7.71-2,10.35-.43l68.08,39.31c1.79,1,1.82,2.18,1,3.63C1008.75,354.39,1008.69,354.39,1008.09,354.05Z"/><path class="cls-17" d="M1007.35,357.18l-39.3,22.69c-3,1.76-7.7,1.95-10.34.43L889.62,341a3.89,3.89,0,0,1-1.32-1.2,5.51,5.51,0,0,1,2.07-1.94l39.29-22.68c3.05-1.77,7.71-2,10.35-.43l68.08,39.31a3.7,3.7,0,0,1,1.32,1.2A5.53,5.53,0,0,1,1007.35,357.18Z"/><path class="cls-16" d="M888,340.42l68.82,39.73c2.67,1.55,7.37,1.35,10.46-.43L1007,356.79a5.6,5.6,0,0,0,2.09-2c1,1.52.29,3.45-2.09,4.82l-39.71,22.93c-3.09,1.78-7.79,2-10.46.43L888,343.29c-1.8-1-2.2-2.62-1.34-4.08A4,4,0,0,0,888,340.42Z"/><path class="cls-18" d="M888.61,333l40-23.17c3.2-1.84,8.08-2,10.84-.45l68.41,39.37c2.77,1.59,2.71,6.31-.48,8.16L967.7,379.8c-3.19,1.84-8.07,2-10.84.45l-68.57-39.46A4.52,4.52,0,0,1,888.61,333Zm3.5,6.64,65,37.69c2.47,1.43,6.83,1.25,9.69-.4l36.81-21.25c2.85-1.65,3.17-4.17.69-5.6l-65-37.68c-2.47-1.43-6.83-1.25-9.69.4L892.8,334C889.94,335.69,889.63,338.21,892.11,339.63Z"/><polygon class="cls-17" points="918.07 271.83 919.61 314.56 922.18 316.21 920.7 270.43 918.07 271.83"/><polygon class="cls-16" points="924.68 267.51 926.06 315.09 922.1 316.83 920.63 269.36 924.68 267.51"/><polygon class="cls-17" points="907.44 278.36 908.98 321.09 911.55 322.74 910.07 276.96 907.44 278.36"/><polygon class="cls-16" points="914.05 274.04 915.43 321.62 911.47 323.36 910 275.9 914.05 274.04"/><polygon class="cls-17" points="895.14 285.75 896.67 328.48 899.25 330.13 897.76 284.36 895.14 285.75"/><polygon class="cls-16" points="901.75 281.44 903.13 329.02 899.16 330.75 897.69 283.29 901.75 281.44"/><polygon class="cls-17" points="953.01 273.57 951.47 316.29 948.89 317.94 950.38 272.17 953.01 273.57"/><polygon class="cls-17" points="965.25 280.71 963.72 323.44 961.14 325.09 962.63 279.31 965.25 280.71"/><polygon class="cls-17" points="977.68 287.73 976.15 330.46 973.57 332.11 975.06 286.33 977.68 287.73"/><polygon class="cls-17" points="990.38 295.15 988.84 337.88 986.26 339.53 987.75 293.75 990.38 295.15"/><polygon class="cls-17" points="1001.8 301.83 1000.26 344.56 997.69 346.21 999.17 300.43 1001.8 301.83"/><polygon class="cls-16" points="946.4 269.25 945.01 316.83 948.98 318.57 950.45 271.1 946.4 269.25"/><polygon class="cls-16" points="958.6 276.51 957.23 323.47 961.18 325.83 962.65 278.36 958.6 276.51"/><polygon class="cls-16" points="971.03 284.1 969.68 330.27 973.61 333.41 975.08 285.95 971.03 284.1"/><polygon class="cls-16" points="983.76 291.48 982.41 337.65 986.34 340.8 987.81 293.33 983.76 291.48"/><polygon class="cls-16" points="995.35 297.96 994.01 344.13 997.94 347.27 999.4 299.81 995.35 297.96"/><polygon class="cls-16" points="931.89 312.66 936.7 312.66 936.7 265.16 931.89 265.16 931.89 274.06 931.89 312.66"/><path class="cls-16" d="M928.13,267.05c3-1.76,7.69-1.95,10.32-.43L1000,302.28l2.07-1.23c.32-.19.62-.4.93-.6l-64.38-37c-2.94-1.7-8.14-1.49-11.55.48L897.56,281c.52.94,1.05,1.88,1.59,2.81Z"/><path class="cls-18" d="M928.13,264.58c3-1.76,7.69-1.95,10.32-.43L1002.08,301c1-.59,1.95-1.23,2.9-1.89l-66.38-38.2c-2.94-1.7-8.14-1.48-11.55.48l-30.53,17.69,1.57,2.81Z"/><path class="cls-19" d="M951.12,306.43c-.56-10.68-8.53-23.71-9.21-32.19-.21-2.72-.44-5.2-.66-7.31-.44-4.45-.81-7.26-.81-7.26l-2.92-2.06s.27,1.35.49,3.44l-28.62,16.26s-.62,10.37-.38,19.12c.12,4.19.44,8,1.12,10.14,1.27,4,4.44,20.06,6.75,32.12l.1-.05c2.8-1.34-.18,1.63,2.57.18-2.75,1.45,0,13.86,0,13.86l31-17.63s.1-1.52.22-3.94.28-6,.38-9.76q0-1.29.06-2.61C951.3,314.46,951.3,310,951.12,306.43Z"/><path class="cls-20" d="M906.47,300.14c2.1-3.72,3.17-11.8,3.64-16.46-.4-3.93-.72-6.37-.72-6.37l-2.92-2.06s1.78,8.94,0,16.63c-2.09,9-7.89,17.2-9.43,22.21-2.84,9.29-1.58,24.57-1.58,24.57l1.9,1.11s.58-16.06,1.42-21C899.94,311.81,903.42,305.55,906.47,300.14Z"/><path class="cls-21" d="M920.06,324.06c-.55-10.68-8.52-23.71-9.2-32.18-.25-3.12-.51-5.91-.75-8.2-.47,4.66-1.54,12.74-3.64,16.46-3.05,5.41-6.53,11.67-7.69,18.6-.84,5-1.42,21-1.42,21l22.14,12.91S920.62,334.74,920.06,324.06Z"/><polygon class="cls-22" points="906.47 275.25 909.39 277.31 940.44 259.67 937.52 257.61 906.47 275.25"/><polygon class="cls-3" points="917.7 336.78 910.74 332.76 910.74 345.14 917.7 349.16 917.7 336.78"/><polygon class="cls-3" points="908.96 342.26 899.12 336.58 899.12 338.4 908.96 344.08 908.96 342.26"/><polygon class="cls-3" points="908.96 338.52 899.12 332.84 899.12 334.65 908.96 340.33 908.96 338.52"/><path class="cls-3" d="M944.24,300.8c-9.3-9.08-22.13.79-21.74,20.25.2,10.05,8.93,19,18.08,10.28C947.93,324.33,952.4,308.76,944.24,300.8Z"/><path class="cls-23" d="M943.54,304.26a7.38,7.38,0,0,0-6.17.63c3.06-1,6.66-.84,7.37,2.72.43,2.11-.67,4.25-1.94,5.84-1.7,2.13-4.2,4.77-6.67,6a4.61,4.61,0,0,1-6.17-1.62,4.08,4.08,0,0,0,.45,2c4.48,7.64,14.38-1.8,15.84-7.1C947.1,309.66,946.77,305.37,943.54,304.26Z"/><path class="cls-7" d="M936.13,319.46c2.47-1.24,5-3.88,6.67-6,1.27-1.59,2.37-3.73,1.94-5.84-.71-3.56-4.31-3.7-7.37-2.72-4.52,2.53-7.49,9.1-7.41,12.95A4.61,4.61,0,0,0,936.13,319.46Z"/><path class="cls-21" d="M935.83,314a.73.73,0,0,0-.9-.69c-.94.2-2.81,1.78-2.08,3.1.37.66,1.4.61,2,.26C935.89,316.1,935.89,315,935.83,314Z"/><path class="cls-21" d="M938.5,305.89c-.25.17-.18.5,0,.72.69.85,3.17.7,3.15-.67C941.63,304.9,940,304.89,938.5,305.89Z"/><path class="cls-21" d="M933.74,319.32c-.25.16-.18.49,0,.72.68.85,3.16.69,3.14-.67C936.86,318.32,935.24,318.31,933.74,319.32Z"/><path class="cls-21" d="M940.57,309.88c.33,1.33,2.45.47,3.18-.3C946,307.22,939.69,306.41,940.57,309.88Z"/><path class="cls-21" d="M937.82,308.91c-.52-.55-2.6-.15-3,1s1.34,1,2,.84S938.56,309.67,937.82,308.91Z"/><path class="cls-21" d="M941.81,312.87c-1.34-.66-3.09,1.48-3.15,2.19-.12,1.49,1.62,1.08,2.36.52S943,313.47,941.81,312.87Z"/><path class="cls-23" d="M933.05,296.12a3.68,3.68,0,0,1,0,2.92c-1.35,3.91-7.71,5.82-11.36,4.61-2.21-.73-3-2.44-2.6-4.07a3.7,3.7,0,0,0-.86,3.22c1.09,5.79,10.19,3.74,13.46,1.77C935.58,302.24,936.15,298.05,933.05,296.12Z"/><path class="cls-7" d="M921.72,303.65c3.65,1.21,10-.7,11.36-4.61a3.68,3.68,0,0,0,0-2.92,7,7,0,0,0-2.83-.94c-2.55-.32-6.93,1-9.59,3a9.66,9.66,0,0,0-1.51,1.39C918.71,301.21,919.51,302.92,921.72,303.65Z"/><path class="cls-21" d="M923.06,298.92a.73.73,0,0,0-.9-.69c-.94.2-2.81,1.78-2.08,3.1.37.66,1.4.61,2,.26C923.11,301,923.12,299.92,923.06,298.92Z"/><path class="cls-21" d="M927.31,296.86c-.24.17-.17.5,0,.72.69.86,3.17.7,3.15-.66C930.44,295.87,928.82,295.86,927.31,296.86Z"/><path class="cls-21" d="M929.38,300.85c.33,1.33,2.45.47,3.18-.3C934.81,298.19,928.5,297.39,929.38,300.85Z"/><path class="cls-21" d="M926.92,301.6c-.53-.54-2.61-.15-3,1s1.34,1,2,.83S927.66,302.37,926.92,301.6Z"/><path class="cls-21" d="M927.85,299.2c-.18-.74-2.17-1.46-3.11-.72s.62,1.57,1.26,1.71S928.09,300.24,927.85,299.2Z"/><path class="cls-23" d="M939.8,328.46a3.69,3.69,0,0,1,0,2.92c-1.34,3.92-7.71,5.82-11.36,4.61-2.2-.73-3-2.43-2.59-4.06a3.7,3.7,0,0,0-.86,3.22c1.09,5.78,10.18,3.73,13.45,1.76C942.33,334.58,942.89,330.39,939.8,328.46Z"/><path class="cls-7" d="M928.46,336c3.65,1.21,10-.69,11.36-4.61a3.69,3.69,0,0,0,0-2.92,7,7,0,0,0-2.84-.94c-2.54-.32-6.92,1-9.58,3a8.42,8.42,0,0,0-1.51,1.39C925.46,333.56,926.26,335.26,928.46,336Z"/><path class="cls-21" d="M929.8,331.26a.72.72,0,0,0-.9-.69c-.94.21-2.81,1.79-2.07,3.1.36.66,1.39.61,2,.27C929.86,333.39,929.87,332.26,929.8,331.26Z"/><path class="cls-21" d="M934.06,329.21c-.25.16-.18.49,0,.72.69.85,3.17.69,3.15-.67C937.19,328.21,935.56,328.2,934.06,329.21Z"/><path class="cls-21" d="M936.12,333.19c.34,1.33,2.46.47,3.19-.3C941.55,330.53,935.25,329.73,936.12,333.19Z"/><path class="cls-21" d="M933.66,333.94c-.52-.54-2.6-.15-3,1s1.34,1,2,.83S934.4,334.71,933.66,333.94Z"/><path class="cls-21" d="M934.59,331.54c-.17-.73-2.16-1.46-3.11-.72s.62,1.58,1.26,1.72S934.84,332.58,934.59,331.54Z"/><polygon class="cls-7" points="940.15 276.33 915.6 290.51 915.6 286.26 940.15 272.08 940.15 276.33"/><ellipse class="cls-3" cx="927.87" cy="281.29" rx="9.34" ry="4.59" transform="translate(53.74 700.79) rotate(-42.5)"/><path class="cls-7" d="M933.53,278.2c0,2.35-2.54,5.71-5.66,7.51s-5.65,1.36-5.65-1,2.53-5.71,5.65-7.51S933.53,275.85,933.53,278.2Z"/><path class="cls-8" d="M986,321.57l-6.15,1.24-6.16-1.24s-6.16,3-6.16,8.56V353c0,4,1.25,7,6.49,8.53,2.12.64,9.54.64,11.66,0,5.23-1.57,6.48-4.56,6.48-8.53V330.13C992.19,324.53,986,321.57,986,321.57Z"/><path class="cls-10" d="M988.31,323.37c0,2.19-3.78,3.95-8.44,3.95s-8.43-1.76-8.43-3.95,3.78-3.95,8.43-3.95S988.31,321.19,988.31,323.37Z"/><path class="cls-10" d="M988.31,321.35c0,2.18-3.78,3.95-8.44,3.95s-8.43-1.77-8.43-3.95,3.78-4,8.43-4S988.31,319.17,988.31,321.35Z"/><rect class="cls-10" x="971.44" y="321.35" width="16.87" height="2.02"/><path class="cls-8" d="M984.5,302.21h-8.78s-8,5.43-8,11.65v3.54a9.32,9.32,0,0,0,4.48,4c3.8,1.85,11.41,1.62,15.21-.24,2.83-1.38,3.85-2.18,4.52-3.79v-3.53C992,307.65,984.5,302.21,984.5,302.21Z"/><path class="cls-8" d="M992,317.4c0,3.13-5.42,5.67-12.11,5.67s-12.1-2.54-12.1-5.67,5.42-5.68,12.1-5.68S992,314.26,992,317.4Z"/><path class="cls-10" d="M984.5,302.21c0,1.14-2,2.06-4.39,2.06s-4.39-.92-4.39-2.06,2-2.06,4.39-2.06S984.5,301.08,984.5,302.21Z"/><rect class="cls-10" x="975.72" y="299.43" width="8.78" height="2.78"/><path class="cls-24" d="M985.39,299.36c0,1.42-2.47,2.58-5.51,2.58s-5.52-1.16-5.52-2.58,2.47-2.59,5.52-2.59S985.39,297.93,985.39,299.36Z"/><rect class="cls-24" x="974.36" y="296.85" width="11.03" height="2.58"/><path class="cls-25" d="M985.39,296.92c0,1.43-2.47,2.58-5.51,2.58s-5.52-1.15-5.52-2.58,2.47-2.58,5.52-2.58S985.39,295.49,985.39,296.92Z"/><path class="cls-25" d="M992.19,332.28c0,3.1-5.37,5.62-12,5.62h-.65c-6.62,0-12-2.52-12-5.62v9.81h0c0,.06,0,.11,0,.17,0,3.1,5.37,5.62,12,5.62h.65c6.62,0,12-2.52,12-5.62,0-.06,0-.11,0-.17h0Z"/><polygon class="cls-16" points="1013.59 309.95 1009.49 356.36 1006.03 358.09 1009.72 309.15 1013.59 309.95"/><polygon class="cls-26" points="1009.85 314.7 1006.07 357.65 1003.13 355.95 1007.14 310.87 1009.85 314.7"/><polygon class="cls-16" points="881.9 293.33 886.32 341.52 890.25 342.56 885.92 292.75 881.9 293.33"/><polygon class="cls-17" points="886.27 297.14 890.21 341.96 893.15 340.26 889.14 295.18 886.27 297.14"/><polygon class="cls-16" points="959.95 382.61 964.75 382.61 964.75 338.62 959.95 338.62 959.95 347.51 959.95 382.61"/><polygon class="cls-26" points="997.54 321.81 993.75 364.76 990.82 363.07 992.97 318.62 997.54 321.81"/><polygon class="cls-26" points="986.26 328.28 982.48 371.23 979.55 369.54 981.7 325.09 986.26 328.28"/><polygon class="cls-26" points="975.08 334.77 971.3 377.72 968.37 376.03 970.52 331.58 975.08 334.77"/><polygon class="cls-16" points="999.75 319.29 997.77 363.15 993.67 365.61 995.48 320.93 999.75 319.29"/><polygon class="cls-16" points="988.49 325.36 986.52 369.23 982.41 371.69 984.22 327.01 988.49 325.36"/><polygon class="cls-16" points="977.3 332.66 975.33 376.52 971.22 378.98 973.03 334.3 977.3 332.66"/><polygon class="cls-26" points="948.11 334.77 951.89 377.72 954.83 376.03 952.67 331.58 948.11 334.77"/><polygon class="cls-16" points="945.82 331.05 947.86 376.52 951.97 378.98 950.16 334.3 945.82 331.05"/><polygon class="cls-26" points="935.92 327.92 939.7 370.86 942.63 369.17 940.48 324.73 935.92 327.92"/><polygon class="cls-16" points="933.62 324.19 935.67 369.66 939.77 372.13 937.97 327.44 933.62 324.19"/><polygon class="cls-26" points="923.23 320.55 927.01 363.5 929.94 361.81 927.79 317.36 923.23 320.55"/><polygon class="cls-16" points="920.93 316.83 922.98 362.3 927.08 364.76 925.27 320.08 920.93 316.83"/><polygon class="cls-26" points="911.15 313.37 914.93 356.32 917.87 354.63 915.71 310.18 911.15 313.37"/><polygon class="cls-16" points="908.41 309.25 910.9 355.12 915.01 357.58 912.75 312.49 908.41 309.25"/><polygon class="cls-26" points="898.09 305.83 901.87 348.78 904.8 347.09 902.25 303.38 898.09 305.83"/><polygon class="cls-16" points="895.02 301.74 897.84 347.58 901.95 350.04 899.36 304.99 895.02 301.74"/><rect class="cls-16" x="881.9" y="290.56" width="1.28" height="2.51" transform="translate(1765.09 583.63) rotate(180)"/><rect class="cls-16" x="1011.31" y="306.83" width="2.32" height="2.32" transform="translate(2024.93 615.98) rotate(180)"/><path class="cls-16" d="M1011.49,305.35,988,291.8c0,1.19.06,2.38.11,3.57l19.68,11.41c2.63,1.52,2.3,4.2-.75,6l-39.22,22.64c-3,1.76-7.69,1.95-10.33.43l-69.28-40.16c-2.63-1.52-2.3-4.2.74-6l16.41-9.47c0-1.26,0-2.52.07-3.78l-20.94,12.14a4.81,4.81,0,0,0-.34,8.3l73.06,42.05c3,1.7,8.15,1.48,11.56-.48l42.26-24.4C1014.38,312.08,1014.44,307.05,1011.49,305.35Z"/><path class="cls-18" d="M1011.49,302.89l-23.55-13.56c0,1.18,0,2.35,0,3.53l19.77,11.45c2.63,1.52,2.3,4.21-.75,6l-39.22,22.64c-3,1.76-7.69,1.95-10.33.43l-69.28-40.16c-2.63-1.52-2.3-4.21.74-6l16.44-9.49c0-1.27.09-2.55.14-3.82l-21,12.19a4.81,4.81,0,0,0-.34,8.3l73.06,42c3,1.7,8.15,1.49,11.56-.48l42.26-24.4C1014.38,309.62,1014.44,304.59,1011.49,302.89Z"/><polygon class="cls-14" points="979.87 251.44 925.9 282.68 917.87 278.04 953.64 257.39 979.88 249.01 979.87 251.44"/><path class="cls-14" d="M919.77,276.84V320.1c0,2.95,1.81,6.4,4,7.68s4-.09,4-3V280.46C925.07,279.34,922.35,278.19,919.77,276.84Z"/><polygon class="cls-14" points="926.33 328.03 924.53 329.07 924.36 327.88 926.39 327.22 926.33 328.03"/><path class="cls-15" d="M921.89,328.88h0c-2.21-1.28-4-4.73-4-7.67V275.64l8,4.63v45.57C925.9,328.79,924.1,330.15,921.89,328.88Z"/><polygon class="cls-27" points="980.04 249.02 925.9 280.27 917.87 275.64 972.01 244.39 980.04 249.02"/><path class="cls-3" d="M920.25,323.54a3.28,3.28,0,0,0,1.69,2.82c.91.37,1.61-.31,1.58-1.51a3.26,3.26,0,0,0-1.69-2.82C920.93,321.66,920.22,322.34,920.25,323.54Z"/><polygon class="cls-28" points="971.94 383.59 1071.69 440.97 1143.14 399.84 1043.59 342.47 971.94 383.59"/><polygon class="cls-29" points="1143.16 399.67 1071.71 440.92 1071.71 448.7 1143.16 407.44 1143.16 399.67"/><polygon class="cls-15" points="971.94 383.59 1071.75 440.92 1071.75 448.7 971.94 391.36 971.94 383.59"/><polygon class="cls-28" points="1124.26 382.78 1059.69 343.5 1091.97 403.82 1124.26 382.78"/><polygon class="cls-15" points="988.51 310.71 988.51 383.81 1071.71 431.59 1071.71 358.58 988.51 310.71"/><polygon class="cls-3" points="1036.72 346.1 1036.72 354.35 1066.86 371.66 1066.86 363.44 1036.72 346.1"/><polygon class="cls-15" points="1113.43 385.07 1118.25 382.58 1084.75 363.23 1078.98 364.9 1113.43 385.07"/><polygon class="cls-29" points="1071.71 431.59 1124.26 401.24 1124.26 382.78 1105.63 393.44 1086.74 350.11 1071.71 358.58 1071.71 431.59"/><polygon class="cls-28" points="988.51 310.71 1071.71 358.58 1086.74 350.11 1003.4 302.11 988.51 310.71"/><path class="cls-4" d="M987.67,658.48c6.39-3.2,12.47-7.1,10.52-10.75-.87-1.65-2.91-2.38-4.88-2.71-5.89,1.94-8.83,3.26-8.83,3.26s.62-64.91,3.14-79.09c.83-4.68-21.52-4.85-21.52-4.85-.8,3.27-1.5,62.73,0,80.24a51.52,51.52,0,0,1-.25,12.55c1.53.66,4.67,2,7,3.09C976.05,661.68,981.28,661.68,987.67,658.48Z"/><path class="cls-7" d="M965.59,666.44c2.14,5.09,7.07,4.61,17,1,8.84-3.18,16.13-6.78,22.41-11.42s6.35-5.27,7.18-8.42c1.16-4.4-5.26-6.86-16-3.55l-2.94.94c2,.33,4,1.06,4.88,2.71,1.95,3.65-4.13,7.55-10.52,10.75s-11.62,3.2-14.81,1.74c-2.34-1.06-5.48-2.43-7-3.09C965.21,661.4,964.31,663.39,965.59,666.44Z"/><path class="cls-4" d="M1018.76,676.52c6.39-3.19,12.46-7.1,10.52-10.75-.88-1.65-2.91-2.38-4.88-2.7-5.89,1.94-8.84,3.26-8.84,3.26s1.64-84.4,4.17-98.58c.83-4.68-21.6,2.35-21.6,2.35-.8,3.27-2.45,75-.94,92.53a51.44,51.44,0,0,1-.25,12.54c1.52.66,4.66,2,7,3.09C1007.14,679.72,1012.37,679.72,1018.76,676.52Z"/><path class="cls-7" d="M996.68,684.48c2.14,5.09,7.06,4.62,17,1,8.84-3.18,16.13-6.77,22.41-11.42s6.35-5.27,7.18-8.41c1.16-4.41-5.27-6.87-16-3.55-1,.32-2,.64-2.94.94,2,.32,4,1,4.88,2.7,1.94,3.65-4.13,7.56-10.52,10.75s-11.62,3.2-14.82,1.74c-2.34-1.06-5.48-2.43-7-3.09C996.29,679.44,995.4,681.43,996.68,684.48Z"/><path class="cls-4" d="M995.38,287.16c2.64,1.83,12.5,4.1,15.25,25.81,2.44,19.24-1.8,24.25-5.71,25.88-2.15.9-9.84.88-9.84.88l.3,16.25s-9.53,3.76-18.67,0l-9.14-3.77s3.57-6.15,3-16.81c-.74-13.21-5.42-32-2.1-39C974.42,283.73,988.21,282.18,995.38,287.16Z"/><path class="cls-30" d="M962.7,342s26,7.5,32.66,9.75c6.28,2.12,11.29,6.44,17.85,19.59s1.72,33.09,1.72,33.09l-2,35.94s-13.6,16.48-25.72,17.64c-16.53,1.59-18.34-7.48-18.34-7.48s-21-46.1-17.61-68.09C954.39,362.49,962.7,342,962.7,342Z"/><path class="cls-7" d="M1011.33,305.51c-.7,7.46-6.82,9.68-12.27,15.38s-6,13.33-7.65,18.41.65,27.75-7.65,44.83c-8.85,18.21-20.19,22.16-20.19,22.16s-15.79-24.28-21.41-53.7,14.68-67.73,36.58-72.35C1002,275.32,1012.76,290.21,1011.33,305.51Z"/><path class="cls-4" d="M1007.22,363.88c-5.38-.51-11,9.27-10.42,21.5.71,15.64,33.32,42.32,33.32,42.32,11,6.49,44.22-4,52.22-4.08,8.57-.09,19.18,6.48,23.88,6.2,12.72-.77,18.9-8,13-13.72-5.62-5.42-24.13-5.61-24.13-5.61s2.73-6.27,2.79-8.21c.21-7.41-3.43.85-8.14,4.65-5.24,4.23-8.46,4.31-13,5-20.31,3-39.4-1.42-39.4-1.42S1017.53,364.86,1007.22,363.88Z"/><path class="cls-30" d="M981.13,279.78s21.14,1.76,19.51,20.07-1.58,21-1.58,21,3.94-10.9,5.86-19.24S1004.26,274.17,981.13,279.78Z"/><path class="cls-4" d="M1004.92,316.19s-5.7-9.78-8.16,0c-2.27,9.08,5.64,12.14,5.64,12.14Z"/><path class="cls-30" d="M967.26,432.73s-7.33,21.71-9.56,34.59C952.14,499.43,954,570.24,954,570.24s29,16.55,49,15.21c29.18-2,37.89-15.21,37.89-15.21S1029,501.77,1027,487.17c-3.92-28.84-16.37-56.37-16.37-56.37Z"/><path class="cls-3" d="M962.83,446.84s19.53,6.79,33.52,2.09,18.55-7.67,18.55-7.67l-1.72-8.06A95.87,95.87,0,0,1,989,439.72c-13.5,2-26.1-3.58-26.1-3.58Z"/><path class="cls-5" d="M1164.39,442.36l-17.5,10.1c-7.15,4.13-19.77,3.61-28-1.16h0c-8.26-4.77-9.17-12.06-2-16.19l17.49-10.1c7.16-4.13,19.77-3.61,28,1.16h0C1170.64,430.94,1171.55,438.23,1164.39,442.36Z"/><rect class="cls-5" x="1112.02" y="438.74" width="11.68" height="4.26"/><rect class="cls-5" x="1157.53" y="431.7" width="11.68" height="4.26"/><path class="cls-3" d="M1164.39,439l-17.5,10.1c-7.15,4.14-19.77,3.61-28-1.16h0c-8.26-4.77-9.17-12.05-2-16.18l17.49-10.11c7.16-4.13,19.77-3.6,28,1.17h0C1170.64,427.56,1171.55,434.84,1164.39,439Z"/><path class="cls-5" d="M1119.37,435l17.37-10c6-3.46,16.53-3,23.44,1,3.33,1.92,5.19,4.32,5.6,6.69.64-3-1.27-6.3-5.6-8.8-6.91-4-17.46-4.42-23.44-1l-17.37,10c-3.1,1.79-4.36,4.29-3.92,6.84A7.54,7.54,0,0,1,1119.37,435Z"/><path class="cls-8" d="M1121.05,446.45c6.91,4,17.46,4.43,23.45,1l17.37-10a7.47,7.47,0,0,0,3.91-4.74c-.41-2.37-2.27-4.77-5.6-6.69-6.91-4-17.46-4.43-23.44-1l-17.37,10a7.54,7.54,0,0,0-3.92,4.74C1115.86,442.13,1117.73,444.53,1121.05,446.45Z"/><polygon class="cls-11" points="1115.45 497.8 1229.63 563.29 1387.36 474.58 1345.03 448.44 1220.06 439.76 1115.45 497.8"/><polygon class="cls-31" points="1345.03 448.44 1220.06 439.76 1345.03 469.1 1345.03 448.44"/><polygon class="cls-32" points="1345.25 469.13 1203.44 548.22 1229.63 563.29 1370.46 484.09 1345.25 469.13"/><polygon class="cls-11" points="1345.03 448.44 1345.03 469.1 1370.46 484.09 1387.36 474.58 1345.03 448.44"/><path class="cls-33" d="M1230.51,520.91a23.2,23.2,0,0,0-6.7,1.54,24.32,24.32,0,0,0-5.35,2.75c-1.06-.74-1.78-1.17-.83-2.68,2.76-3.12,11.54-5.53,11.54-5.53Z"/><path class="cls-34" d="M1244.54,513.26c-9.35.83-14.41,3.47-17,5.48a7.39,7.39,0,0,0,.55,1.45c2.17,4.48,7.79,1.47,15.61,1.55s15.42-.38,23.67,3.8c4.34,2.2,8.58,4.17,10.71,2a8.57,8.57,0,0,0,1.67-2.35,33.59,33.59,0,0,0-4.55-5.69C1269.77,514.22,1259.54,511.93,1244.54,513.26Z"/><path class="cls-33" d="M1271.37,513.09c-13.11-5.41-23.21-5.4-33.85-1.46-8.34,3.09-10.65,4.4-10,7.11,2.59-2,7.65-4.65,17-5.48,15-1.33,25.23,1,30.66,6.28a33.59,33.59,0,0,1,4.55,5.69C1281.26,522.13,1281.26,517.17,1271.37,513.09Z"/><path class="cls-35" d="M1234.61,520.14c.89,1.25,4.58.07,11.49-.23a51,51,0,0,1,17.07,2.4c4,1.41,7.09,4,9.82,4.05s3.65-2.9-4.8-6.87-11.74-4-20.3-3.93S1233.34,518.37,1234.61,520.14Z"/><path class="cls-7" d="M1277.11,527.29c.17.47,2.47.36,2.77-.14.53-.91,1.07-2.93-.56-3.11C1278,523.88,1276.69,526.14,1277.11,527.29Z"/><path class="cls-20" d="M1247.65,540.11a14.13,14.13,0,0,1-15.82-12.21c-.06-.47-.09-.93-.11-1.39a14.31,14.31,0,1,0,27.16,6.28c0-.38,0-.76-.05-1.14A14.13,14.13,0,0,1,1247.65,540.11Z"/><path class="cls-19" d="M1247.65,540.11a14.13,14.13,0,0,0,11.18-8.46,14.3,14.3,0,0,0-27.11-5.14c0,.46,0,.92.11,1.39A14.13,14.13,0,0,0,1247.65,540.11Z"/><path class="cls-36" d="M1238.9,521.26a3,3,0,0,0-1.27.8c-.28.28-.27,1.06-.27,1.06s-.84-.16-1.28-.2a4.84,4.84,0,0,0-1.21.18,1.66,1.66,0,0,0,.72.75,8.48,8.48,0,0,1,.81.58s-.73.64-.87.8a2.81,2.81,0,0,0-.51,1.57,13.09,13.09,0,0,0,1.5-.83,14.43,14.43,0,0,0,1-1.06,6.43,6.43,0,0,0,.91.4,7.31,7.31,0,0,0,1.22.16,2.68,2.68,0,0,0-.54-1.44,4.15,4.15,0,0,0-.63-.43,5,5,0,0,1-.06-1.19A2.32,2.32,0,0,1,1238.9,521.26Z"/><rect class="cls-37" x="1308.78" y="462.53" width="26.39" height="34.8"/><path class="cls-37" d="M1335.17,497.33c0,4.1-5.91,7.42-13.2,7.42s-13.19-3.32-13.19-7.42,5.91-7.43,13.19-7.43S1335.17,493.23,1335.17,497.33Z"/><path class="cls-36" d="M1335.17,465.08v-.63c0,4.09-5.88,7.41-13.14,7.43s-13.14-3.34-13.14-7.43v.63a4.37,4.37,0,0,1-.11-.63v30.69c0,3.45,4.18,6.32,9.83,7.16h.05a22.18,22.18,0,0,0,3.31.27h.11a22.07,22.07,0,0,0,3.31-.27h0c5.65-.84,9.84-3.71,9.84-7.16V464.45A4.37,4.37,0,0,1,1335.17,465.08Z"/><path class="cls-3" d="M1322,476.8c-7.28,0-13.19-3.33-13.19-7.43v1.48c0,4.1,5.91,7.42,13.19,7.42s13.2-3.32,13.2-7.42v-1.48C1335.17,473.47,1329.26,476.8,1322,476.8Z"/><path class="cls-23" d="M1322,471.88c-7.28,0-13.19-3.33-13.19-7.43v4.92c0,4.1,5.91,7.43,13.19,7.43s13.2-3.33,13.2-7.43v-4.92C1335.17,468.55,1329.26,471.88,1322,471.88Z"/><path class="cls-3" d="M1330,489.9a8.57,8.57,0,1,1-8.57-8.57A8.57,8.57,0,0,1,1330,489.9Z"/><path class="cls-19" d="M1322,457.48c-5.81,0-10.73,2.12-12.49,5h25C1332.7,459.6,1327.78,457.48,1322,457.48Z"/><path class="cls-38" d="M1335.17,462.53c0,4.1-5.91,7.43-13.2,7.43s-13.19-3.33-13.19-7.43,5.91-7.42,13.19-7.42S1335.17,458.43,1335.17,462.53Z"/><path class="cls-39" d="M1322,457.36c5.93,0,10.81,2.53,11.44,5.77a4.17,4.17,0,0,0,.07-.71c0-3.58-5.15-6.48-11.51-6.48s-11.5,2.9-11.5,6.48a3.35,3.35,0,0,0,.07.71C1311.16,459.89,1316,457.36,1322,457.36Z"/><path class="cls-37" d="M1322,468.9c5.93,0,10.81-2.53,11.44-5.77-.63-3.24-5.51-5.77-11.44-5.77s-10.81,2.53-11.43,5.77C1311.16,466.37,1316,468.9,1322,468.9Z"/><path class="cls-39" d="M1331.13,463.13c0,2.64-4.1,4.78-9.16,4.78s-9.15-2.14-9.15-4.78,4.1-4.78,9.15-4.78S1331.13,460.49,1331.13,463.13Z"/><path class="cls-37" d="M1330.29,463.05c0,2.3-3.67,4.16-8.21,4.16s-8.2-1.86-8.2-4.16,3.67-4.15,8.2-4.15S1330.29,460.76,1330.29,463.05Z"/><path class="cls-3" d="M1321.71,461.48a4.77,4.77,0,0,0-4.44-.4,25.63,25.63,0,0,0-4,3.12c-1.16.92-.25,1.71.2,2h0l0,0h0a4.2,4.2,0,0,0,3.49.12,41.87,41.87,0,0,0,5.41-2.31C1323.18,463.61,1323.75,462.66,1321.71,461.48Zm-3,2.49-1.27-.74c-.72-.41-.63-1.15.2-1.63a3.14,3.14,0,0,1,2.84-.12l1.27.73c.73.42.63,1.16-.2,1.64A3.21,3.21,0,0,1,1318.68,464Z"/><ellipse class="cls-39" cx="1314.62" cy="465.33" rx="1.2" ry="0.68"/><path class="cls-40" d="M1330.87,485.38c-4.35-2.76-15.69,2.16-17.81,4.2-1.81,1.74-2,4,.16,5.61,2.53,1.85,6.2,1.12,9,.32C1325.36,494.6,1336.42,488.91,1330.87,485.38Z"/><rect class="cls-37" x="1282.12" y="481.9" width="28.48" height="27.32"/><ellipse class="cls-38" cx="1296.36" cy="509.21" rx="14.24" ry="8.01"/><path class="cls-25" d="M1307.69,487.73v24.9a6.18,6.18,0,0,0,2.91-4.83V482.9A6.19,6.19,0,0,1,1307.69,487.73Z"/><path class="cls-25" d="M1296.36,490.91c-7.86,0-14.24-3.59-14.24-8v24.9c0,4.42,6.38,8,14.24,8a24.71,24.71,0,0,0,3.61-.27v-24.9A24.71,24.71,0,0,1,1296.36,490.91Z"/><path class="cls-24" d="M1300,490.64v24.9a17.26,17.26,0,0,0,7.72-2.91v-24.9A17.26,17.26,0,0,1,1300,490.64Z"/><path class="cls-7" d="M1296.24,495.06c-7.81,0-14.12-3.61-14.12-8v2.05c0,4.41,6.31,8,14.12,8Z"/><path class="cls-7" d="M1296.24,499.4c-7.81,0-14.12-3.6-14.12-8v13.82c0,4.4,6.31,8,14.12,8Z"/><path class="cls-19" d="M1296.36,476.45c-6.27,0-11.58,2.28-13.48,5.45h27C1307.94,478.73,1302.63,476.45,1296.36,476.45Z"/><path class="cls-38" d="M1310.6,481.9c0,4.42-6.38,8-14.24,8s-14.24-3.59-14.24-8,6.38-8,14.24-8S1310.6,477.47,1310.6,481.9Z"/><path class="cls-39" d="M1296.36,476.32c6.4,0,11.66,2.72,12.34,6.22a3.84,3.84,0,0,0,.08-.76c0-3.86-5.56-7-12.42-7s-12.42,3.13-12.42,7a3.84,3.84,0,0,0,.08.76C1284.7,479,1290,476.32,1296.36,476.32Z"/><path class="cls-37" d="M1296.36,488.77c6.4,0,11.66-2.73,12.34-6.23-.68-3.5-5.94-6.22-12.34-6.22S1284.7,479,1284,482.54C1284.7,486,1290,488.77,1296.36,488.77Z"/><path class="cls-39" d="M1306.24,482.54c0,2.85-4.42,5.16-9.88,5.16s-9.88-2.31-9.88-5.16,4.42-5.16,9.88-5.16S1306.24,479.69,1306.24,482.54Z"/><path class="cls-37" d="M1305.34,482.46c0,2.48-4,4.49-8.86,4.49s-8.86-2-8.86-4.49,4-4.48,8.86-4.48S1305.34,480,1305.34,482.46Z"/><path class="cls-3" d="M1296.08,480.77a5.14,5.14,0,0,0-4.8-.44,28.22,28.22,0,0,0-4.31,3.37c-1.26,1-.27,1.84.21,2.17h0l0,0h0a4.53,4.53,0,0,0,3.76.13,45.12,45.12,0,0,0,5.84-2.49C1297.66,483.06,1298.27,482,1296.08,480.77Zm-3.27,2.68-1.37-.79c-.78-.46-.69-1.25.22-1.77a3.42,3.42,0,0,1,3.06-.13l1.37.79c.78.45.68,1.25-.22,1.77A3.42,3.42,0,0,1,1292.81,483.45Z"/><path class="cls-39" d="M1289.73,484.92c0,.4-.59.73-1.3.73s-1.3-.33-1.3-.73.58-.73,1.3-.73S1289.73,484.52,1289.73,484.92Z"/><path class="cls-41" d="M831.31,299.4c0,1.06,1.65,12.33,3.07,34.79,1.06,16.85,1.41,28.17,2,40.55.27,6-2.09,15.87-5.44,17.59-3.6,1.86-8.3-5-10.66-15.12-1.09-4.65,2.27-13.18.84-20.16-5.34-26.24-8.05-51.64-6.45-49.69Z"/><path class="cls-12" d="M801.74,195.62s-6.89-17.15-23.16-9.91-16.76,39.34-18.75,49.2-2.72,45.59-2.72,45.59l23.79-5.11S810,223.94,801.74,195.62Z"/><path class="cls-25" d="M818.11,238.72c8,3.72,18.71,23.3,17.65,52-.11,3,.45,11.89,1.27,22.75,1.73,22.9,2.66,33.78,2.66,49.43-4.79,4.34-12.71,4-19.49.25-9-7.46-7.53-75.93-7.53-75.93l-10.82-49S808.5,234.22,818.11,238.72Z"/><path class="cls-42" d="M826.38,406.2s-2.93,18.5-3.06,26.78a109.84,109.84,0,0,1-2.06,22.13c-1.7,9.61-4.25,48.16-4.32,60.9s7.75,24.6,10.67,29.2-6.34,11.81-13.36,5.09-7.75-8-11.71-10.13S795.64,529,798.78,519s1.6-29.88-1.73-47.25,1.52-39.44-.43-44.64S826.38,406.2,826.38,406.2Z"/><path class="cls-13" d="M827.61,545.21s8.63,7.2,11.52,10.71-6,8.68-14.56,5.72-15.5-11-22.25-17-8.42-8-8.09-14.81c.16-3.34,3.6-6.86,3.6-6.86s2.11,13.76,11.81,19.53C818.89,548,822.7,548.82,827.61,545.21Z"/><path class="cls-41" d="M799.36,421.14s-1,18.59-1.15,26.88-1.44,10.92-3.89,20.36S790,518.21,789.92,531s7.75,24.6,10.67,29.2-6.34,11.81-13.35,5.09-7.76-8-11.72-10.13-6.9-11.17-3.76-21.22,1.6-29.88-1.73-47.25,2.22-39.55,1-45c-3-13.31-10.17-33.8-2.68-38.29C776.2,398.68,799.36,421.14,799.36,421.14Z"/><path class="cls-13" d="M800.59,560.15s8.64,7.2,11.52,10.71-6.05,8.68-14.56,5.72-15.5-11-22.24-17-8.43-8-8.1-14.81c.16-3.34,3.61-6.86,3.61-6.86s2.1,13.76,11.8,19.53C791.87,562.92,795.69,563.76,800.59,560.15Z"/><path class="cls-13" d="M829,335s3.45,4.12,3.87,23.88c.12,6.11-.42,59.4-.42,59.4S811.54,439,798.45,440s-37.56-7.74-37.56-7.74-6.3-73.42.6-87.74S829,335,829,335Z"/><path class="cls-43" d="M758,265.61c1.64-6.52,21.6-20.2,21.6-20.2s11.15,8.89,15.07,12,9.84-.08,5.94-10.71c-1.23-3.35.63-13.13.63-13.13s1.56-.39,3.82-.8c3.4,3.76,10.07,13.74,13.68,17.87s17,16.45,13.24,29.33a106.6,106.6,0,0,1-4.56,11.89c-2.28,5.32-6.73,13.33-4.81,18.49a314.52,314.52,0,0,1,10.23,32.86s-18.87,14-34.34,15.65C773.87,361.5,760,348.49,760,348.49c1.26-7,14.82-37,14.47-49C774.47,299.45,752.6,287.15,758,265.61Z"/><path class="cls-42" d="M802.42,235.05a16.41,16.41,0,0,1,1.92,6.7c.23,3.36,17.7,19.5,5.6,26.53-10.54,6.13-30.33-22.87-30.33-22.87a65.24,65.24,0,0,0,3.18-13.27,121.48,121.48,0,0,0-.5-21Z"/><path class="cls-41" d="M791,195c7.61-5.24,25.08-6.18,30.55,12.08,5.74,19.16-12.45,41.85-21.33,37.41-5-2.48-16.06-11.7-18.59-21.77C778.76,211.39,785.06,199.05,791,195Z"/><path class="cls-13" d="M779.93,199.64c1.45-6.22,6.14-10.3,11.5-12.21,10.73-3.82,17.53-4.72,27,4.89,5.69,5.77,6.84,12,6.34,22.24,0,0-6.45,8-22.09,9-7.6.48-16.71-6.28-19.62,3.18C777,216.92,778.37,206.34,779.93,199.64Z"/><path class="cls-41" d="M792.05,225.23s-.57-4.72-4.42-6.59-4.34,6.22-1.74,9.19S792.05,225.23,792.05,225.23Z"/><path class="cls-25" d="M730.16,374.86c-1.12-1.38,9.09-38,12.13-57.43A288.33,288.33,0,0,1,753,274c3.55-11.07,9.31-17.15,14.53-19.38,3.82-1.64,9.38,8.37,10.61,15.54,2.72,15.85-11,49.05-13.13,60.13-3.84,19.87-10.27,43-13.68,50.84C746.14,383.44,734.49,380.18,730.16,374.86Z"/><path class="cls-14" d="M759.17,390.86v35.75a8,8,0,0,0,3.32,6.34c1.82,1.05,3.32-.08,3.32-2.51V392.49C763.55,391.57,761.3,392,759.17,390.86Z"/><polygon class="cls-14" points="764.59 433.15 763.1 434.02 762.97 433.04 764.65 432.49 764.59 433.15"/><path class="cls-15" d="M760.92,433.86h0a8,8,0,0,1-3.31-6.34V389.87l6.63,3.83v37.65C764.24,433.78,762.75,434.91,760.92,433.86Z"/><path class="cls-16" d="M789,479.25l-56.25-32.47c-2.18-1.26-6-1.1-8.55.35l-32.46,18.75a4.66,4.66,0,0,0-1.71,1.59c-.82-1.24-.23-2.82,1.71-3.94l32.46-18.74c2.52-1.46,6.37-1.62,8.55-.36L789,476.91c1.47.85,1.5,1.8.79,3C789.53,479.54,789.47,479.54,789,479.25Z"/><path class="cls-17" d="M788.36,481.84,755.9,500.58c-2.52,1.46-6.37,1.62-8.55.36l-56.24-32.47a3.27,3.27,0,0,1-1.1-1,4.66,4.66,0,0,1,1.71-1.59l32.46-18.75c2.52-1.45,6.37-1.61,8.55-.35L789,479.25a3.23,3.23,0,0,1,1.09,1A4.58,4.58,0,0,1,788.36,481.84Z"/><path class="cls-16" d="M689.75,468l56.84,32.82c2.21,1.28,6.1,1.11,8.64-.36L788,481.52a4.54,4.54,0,0,0,1.73-1.61c.84,1.25.24,2.85-1.73,4l-32.81,18.94c-2.54,1.47-6.43,1.64-8.64.36l-56.84-32.82c-1.5-.86-1.82-2.16-1.11-3.37A3.22,3.22,0,0,0,689.75,468Z"/><path class="cls-18" d="M690.27,461.86l33-19.14c2.64-1.52,6.67-1.69,9-.37l56.51,32.52c2.28,1.32,2.24,5.21-.4,6.74l-32.77,18.92c-2.64,1.52-6.67,1.69-9,.37L690,468.3A3.73,3.73,0,0,1,690.27,461.86Zm2.89,5.49,53.71,31.13c2,1.18,5.65,1,8-.33l30.41-17.55c2.36-1.37,2.62-3.45.57-4.63l-53.71-31.13c-2-1.18-5.65-1-8,.33l-30.4,17.55C691.37,464.09,691.12,466.17,693.16,467.35Z"/><polygon class="cls-17" points="714.61 411.33 715.88 446.63 718.01 447.99 716.78 410.18 714.61 411.33"/><polygon class="cls-16" points="720.07 407.77 721.21 447.07 717.93 448.51 716.72 409.3 720.07 407.77"/><polygon class="cls-17" points="705.83 416.73 707.1 452.03 709.23 453.39 708 415.58 705.83 416.73"/><polygon class="cls-16" points="711.29 413.16 712.43 452.47 709.15 453.91 707.94 414.69 711.29 413.16"/><polygon class="cls-17" points="695.66 422.84 696.93 458.13 699.06 459.5 697.84 421.68 695.66 422.84"/><polygon class="cls-16" points="701.12 419.27 702.27 458.58 698.99 460.01 697.78 420.8 701.12 419.27"/><polygon class="cls-17" points="743.47 412.77 742.2 448.07 740.08 449.43 741.3 411.62 743.47 412.77"/><polygon class="cls-17" points="753.59 418.67 752.32 453.97 750.19 455.33 751.42 417.52 753.59 418.67"/><polygon class="cls-17" points="763.86 424.47 762.59 459.76 760.46 461.13 761.69 423.31 763.86 424.47"/><polygon class="cls-17" points="774.34 430.6 773.07 465.9 770.94 467.26 772.17 429.44 774.34 430.6"/><polygon class="cls-17" points="783.78 436.12 782.51 471.41 780.38 472.78 781.61 434.96 783.78 436.12"/><polygon class="cls-16" points="738.01 409.2 736.87 448.51 740.15 449.94 741.36 410.73 738.01 409.2"/><polygon class="cls-16" points="748.09 415.2 746.96 453.99 750.22 455.94 751.44 416.73 748.09 415.2"/><polygon class="cls-16" points="758.36 421.47 757.25 459.62 760.5 462.21 761.71 423 758.36 421.47"/><polygon class="cls-16" points="768.88 427.56 767.76 465.71 771.01 468.31 772.22 429.1 768.88 427.56"/><polygon class="cls-16" points="778.45 432.92 777.34 471.07 780.59 473.66 781.8 434.45 778.45 432.92"/><polygon class="cls-16" points="726.03 445.07 730 445.07 730 405.83 726.03 405.83 726.03 413.17 726.03 445.07"/><path class="cls-16" d="M722.92,407.38c2.51-1.45,6.35-1.61,8.53-.35l50.82,29.46,1.72-1c.26-.15.51-.33.76-.49l-53.18-30.6c-2.43-1.41-6.73-1.23-9.54.39l-24.36,14.12c.43.77.86,1.54,1.31,2.31Z"/><path class="cls-18" d="M722.92,405.35c2.51-1.46,6.35-1.62,8.53-.36L784,435.46c.81-.49,1.61-1,2.4-1.57l-54.84-31.55c-2.43-1.4-6.73-1.23-9.54.4L696.8,417.35c.43.78.87,1.55,1.3,2.32Z"/><path class="cls-34" d="M768.89,441.62v47.59l-25-14.42V427.2Z"/><polygon class="cls-7" points="745.91 431.07 745.91 448.7 745.91 473.49 766.61 485.44 766.61 471.67 766.61 443.01 745.91 431.07"/><polygon class="cls-3" points="747.45 433.42 764.84 443.46 764.84 445.94 747.45 435.9 747.45 433.42"/><polygon class="cls-3" points="747.45 438.83 764.84 448.87 764.84 451.36 747.45 441.31 747.45 438.83"/><polygon class="cls-33" points="768.89 489.21 779.5 482.86 779.5 435.27 768.89 441.62 768.89 489.21"/><polygon class="cls-35" points="754.52 420.85 743.92 427.2 768.89 441.62 779.5 435.27 754.52 420.85"/><polygon class="cls-3" points="770.85 442.89 770.85 456.51 777.54 452.65 777.54 439.03 770.85 442.89"/><polygon class="cls-7" points="770.85 480.63 770.85 485.46 777.54 481.6 777.54 476.77 770.85 480.63"/><polygon class="cls-7" points="770.85 458.55 770.85 478.94 777.33 475.19 777.33 454.81 770.85 458.55"/><path class="cls-22" d="M762,462.68a9.58,9.58,0,0,0-.19-8c-3-5.89-8.77,0-10.88,3.47s-5,12.13,0,14.77S760.44,467.07,762,462.68Z"/><path class="cls-19" d="M759.46,453.79a2.71,2.71,0,0,0-2.59,3.11c.18,1.55,1.27,3.77,3,2.41C761.39,458.19,762,453.75,759.46,453.79Z"/><path class="cls-19" d="M761.14,462.9c-.28-1.83-4.73-1.41-5.59,1.24-.51,1.55,1.88,1.62,2.92,1.46C759.84,465.4,761.4,464.52,761.14,462.9Z"/><path class="cls-19" d="M755.11,459.07c-.11-.78-.59-2-1.54-2-.77,0-1.22.83-1.22,1.54,0,2.84,1,2.89,1.95,2.84S755.22,459.91,755.11,459.07Z"/><path class="cls-19" d="M762.4,468.56c-1.46-.83-7-.8-6.14,1.87s3.24,1.94,4.52,1.35C761.84,471.29,764.39,469.67,762.4,468.56Z"/><path class="cls-19" d="M753.12,466c-.28-.75-1-1.63-1.89-1a2.6,2.6,0,0,0-.67,2.6,3.26,3.26,0,0,0,1.76,2.2.46.46,0,0,0,.62-.17,3.52,3.52,0,0,0,.41-1.79A4,4,0,0,0,753.12,466Z"/><path class="cls-19" d="M751.67,452.34c-.28-.75-1-1.63-1.89-1a2.61,2.61,0,0,0-.67,2.6,3.24,3.24,0,0,0,1.76,2.2.45.45,0,0,0,.62-.16,3.52,3.52,0,0,0,.41-1.79A4,4,0,0,0,751.67,452.34Z"/><path class="cls-19" d="M755,472.35a1.61,1.61,0,0,0-.49,0,1.3,1.3,0,1,0-.4,2.57,1.47,1.47,0,0,0,1.77-1.59A1,1,0,0,0,755,472.35Z"/><path class="cls-19" d="M762.77,474.76c-.56-.49-1.77-.56-2.15.11a2.42,2.42,0,0,0-1.6,2.37c.26,1.31,2,1.15,2.9.63S763.86,475.73,762.77,474.76Z"/><path class="cls-19" d="M763.9,459.25c-.35-.53-.61-1.16-1.24-.75a1.43,1.43,0,0,0-.55,1.27,2.19,2.19,0,0,0,.7,2.18.4.4,0,0,0,.44.06A2,2,0,0,0,763.9,459.25Z"/><path class="cls-19" d="M754.52,449.7c-.35-.52-.61-1.16-1.24-.75a1.43,1.43,0,0,0-.55,1.27,2.19,2.19,0,0,0,.7,2.18.38.38,0,0,0,.45.06A2,2,0,0,0,754.52,449.7Z"/><polygon class="cls-44" points="716.01 474.94 697.86 464.41 697.86 425.77 716.01 436.17 716.01 474.94"/><polygon class="cls-45" points="716.01 474.94 734.16 464.41 734.16 425.77 716.01 436.17 716.01 474.94"/><polygon class="cls-19" points="716.01 436.17 706.94 420.37 724.03 410.33 734.16 425.77 716.01 436.17"/><polygon class="cls-44" points="697.86 425.77 706.94 420.37 716.01 436.17 697.86 425.77"/><polygon class="cls-19" points="700.12 427.03 706.48 423.25 712.83 434.31 700.12 427.03"/><polygon class="cls-44" points="706.04 420.91 707.85 421.95 707.85 417.33 706.04 416.28 706.04 420.91"/><polygon class="cls-46" points="723.13 410.71 724.93 411.76 724.93 407.29 723.13 406.24 723.13 410.71"/><polygon class="cls-45" points="707.85 421.95 724.93 411.76 724.93 407.29 707.85 417.33 707.85 421.95"/><polygon class="cls-47" points="706.04 416.28 707.85 417.33 724.93 407.29 723.13 406.24 706.04 416.28"/><polygon class="cls-7" points="713.44 438.21 700.12 430.58 700.12 462.7 713.44 470.43 713.44 438.21"/><path class="cls-3" d="M710.73,450.25c1.36-1.57,1.57-6.86.14-8.7-1.82-2.32-1.66,1.79-4.48,1.85-1,0-1.07-1.65-1.53-2.68-1.07-2.44-3-.6-1.78,3.09.5,1.58,1.2,2.68-.28,4.54-.35.44-.92.68-1.22,1.19a2.13,2.13,0,0,0-.09,2.53c1.35,1.6,2.13-.89,2.15,2.08,0,2.63.86,6.2,4.42,5.43a3,3,0,0,0,2.34-2.23C710.74,456.05,707.43,454.05,710.73,450.25Z"/><path class="cls-3" d="M734.66,431.2l-1.28-.23v-1.23l-3.38.61-3.38-.61V431l-1.29.23s-5.69,17.75-5.69,23.37v24h20.72v-24C740.36,449,734.66,431.2,734.66,431.2Z"/><path class="cls-10" d="M740.35,478.72c0,3.22-4.63,5.83-10.35,5.83s-10.36-2.61-10.36-5.83,4.64-5.83,10.36-5.83S740.35,475.5,740.35,478.72Z"/><path class="cls-10" d="M735.68,432.8c0,1.76-2.54,3.19-5.68,3.19s-5.68-1.43-5.68-3.19,2.54-3.2,5.68-3.2S735.68,431,735.68,432.8Z"/><path class="cls-17" d="M736.54,430.6c0,2-2.89,3.62-6.44,3.62s-6.43-1.62-6.43-3.62,2.88-3.63,6.43-3.63S736.54,428.6,736.54,430.6Z"/><path class="cls-17" d="M724.09,427s-2.06,3.28.59,5.58C726.63,434.23,727.51,426.86,724.09,427Z"/><path class="cls-17" d="M736.12,427s2.06,3.28-.6,5.58C733.58,434.23,732.69,426.86,736.12,427Z"/><path class="cls-16" d="M736.54,428.26c0,2-2.89,3.62-6.44,3.62s-6.43-1.62-6.43-3.62,2.88-3.63,6.43-3.63S736.54,426.26,736.54,428.26Z"/><path class="cls-10" d="M740.35,453.18c0,3.22-4.63,5.83-10.35,5.83s-10.36-2.61-10.36-5.83v25.36h20.72V453.18Z"/><path class="cls-16" d="M724.74,463a13.2,13.2,0,0,1-1.65-.7,8.45,8.45,0,0,1-1.41-.88,4.4,4.4,0,0,1-1.91-3.35v17.26c0,3.19,4.55,5.77,10.19,5.82V463.89A16.47,16.47,0,0,1,724.74,463Z"/><ellipse class="cls-44" cx="749.93" cy="489.42" rx="11.26" ry="6.34"/><rect class="cls-44" x="738.67" y="473.54" width="22.53" height="15.88"/><path class="cls-48" d="M761.19,473.54c0,3.5-5,6.34-11.26,6.34s-11.26-2.84-11.26-6.34,5-6.34,11.26-6.34S761.19,470,761.19,473.54Z"/><path class="cls-3" d="M744.07,483.94a13.94,13.94,0,0,1-1.79-.75,10.26,10.26,0,0,1-1.53-1,4.76,4.76,0,0,1-2.08-3.65v7.29c0,3.47,4.94,6.28,11.08,6.33v-7.29A17.76,17.76,0,0,1,744.07,483.94Z"/><path class="cls-36" d="M762.29,474.15c0,3.84-5.54,7-12.36,7s-12.36-3.12-12.36-7,5.53-6.95,12.36-6.95S762.29,470.31,762.29,474.15Z"/><path class="cls-36" d="M737.92,469.67a6.3,6.3,0,0,0-.07,6c.71,1.55,2.15-.58,2-2.39C739.73,471.92,737.92,469.67,737.92,469.67Z"/><path class="cls-36" d="M761.82,469.42a6.53,6.53,0,0,1,.3,6.21c-.7,1.55-2.14-.58-2-2.39A13.1,13.1,0,0,1,761.82,469.42Z"/><path class="cls-49" d="M762.29,471.31c0,3.84-5.54,6.95-12.36,6.95s-12.36-3.11-12.36-6.95,5.53-7,12.36-7S762.29,467.47,762.29,471.31Z"/><polygon class="cls-16" points="793.52 442.83 790.13 481.16 787.27 482.59 790.33 442.16 793.52 442.83"/><polygon class="cls-26" points="790.43 446.75 787.31 482.23 784.88 480.83 788.19 443.58 790.43 446.75"/><polygon class="cls-16" points="684.73 429.1 688.38 468.9 691.63 469.76 688.05 428.62 684.73 429.1"/><polygon class="cls-17" points="688.34 432.24 691.6 469.27 694.02 467.87 690.71 430.62 688.34 432.24"/><polygon class="cls-16" points="749.21 502.85 753.18 502.85 753.18 466.51 749.21 466.51 749.21 473.86 749.21 502.85"/><polygon class="cls-26" points="780.26 452.63 777.13 488.11 774.71 486.71 776.49 449.99 780.26 452.63"/><polygon class="cls-26" points="770.94 457.97 767.82 493.45 765.4 492.05 767.17 455.33 770.94 457.97"/><polygon class="cls-26" points="761.71 463.33 758.58 498.81 756.16 497.41 757.94 460.7 761.71 463.33"/><polygon class="cls-16" points="782.08 450.54 780.46 486.77 777.06 488.81 778.55 451.89 782.08 450.54"/><polygon class="cls-16" points="772.79 455.56 771.16 491.79 767.76 493.83 769.26 456.92 772.79 455.56"/><polygon class="cls-16" points="763.54 461.58 761.91 497.82 758.52 499.85 760.01 462.94 763.54 461.58"/><polygon class="cls-26" points="739.43 463.33 742.55 498.81 744.98 497.41 743.2 460.7 739.43 463.33"/><polygon class="cls-16" points="737.53 460.26 739.22 497.82 742.62 499.85 741.12 462.94 737.53 460.26"/><polygon class="cls-26" points="729.35 457.67 732.48 493.15 734.9 491.75 733.12 455.03 729.35 457.67"/><polygon class="cls-16" points="727.46 454.59 729.15 492.15 732.54 494.19 731.05 457.28 727.46 454.59"/><polygon class="cls-26" points="718.87 451.58 721.99 487.06 724.42 485.67 722.64 448.95 718.87 451.58"/><polygon class="cls-16" points="716.97 448.51 718.66 486.07 722.05 488.11 720.56 451.19 716.97 448.51"/><polygon class="cls-26" points="708.89 445.65 712.02 481.13 714.44 479.74 712.66 443.02 708.89 445.65"/><polygon class="cls-16" points="706.63 442.24 708.69 480.14 712.08 482.18 710.22 444.93 706.63 442.24"/><polygon class="cls-26" points="698.1 439.43 701.23 474.9 703.65 473.51 701.54 437.4 698.1 439.43"/><polygon class="cls-16" points="695.57 436.04 697.9 473.91 701.29 475.95 699.15 438.73 695.57 436.04"/><rect class="cls-16" x="684.73" y="426.81" width="1.06" height="2.07" transform="translate(1370.52 855.68) rotate(180)"/><rect class="cls-16" x="791.63" y="440.25" width="1.91" height="1.91" transform="translate(1585.18 882.41) rotate(180)"/><path class="cls-16" d="M791.79,439l-19.45-11.2c0,1,0,2,.09,2.95l16.25,9.42c2.18,1.26,1.91,3.48-.61,4.93l-32.4,18.71c-2.51,1.45-6.35,1.61-8.53.35L689.9,431c-2.17-1.25-1.9-3.47.62-4.92l13.55-7.83c0-1,0-2.07.06-3.12l-17.31,10a4,4,0,0,0-.28,6.86l60.37,34.73c2.43,1.41,6.73,1.23,9.54-.39l34.91-20.16C794.18,444.59,794.22,440.43,791.79,439Z"/><path class="cls-18" d="M791.79,437l-19.46-11.2c0,1,0,1.94,0,2.92l16.32,9.46c2.18,1.26,1.91,3.47-.61,4.92l-32.4,18.71c-2.51,1.45-6.35,1.61-8.53.35L689.9,429c-2.17-1.26-1.9-3.48.62-4.93l13.57-7.84c0-1,.08-2.1.12-3.15l-17.39,10.07a4,4,0,0,0-.28,6.86l60.37,34.74c2.43,1.4,6.73,1.23,9.54-.4l34.91-20.16C794.18,442.55,794.22,438.4,791.79,437Z"/><polygon class="cls-14" points="765.66 394.49 721.08 420.29 714.45 416.47 744 399.4 765.67 392.48 765.66 394.49"/><path class="cls-14" d="M716,415.47v35.74a8,8,0,0,0,3.32,6.34c1.82,1.06,3.32-.07,3.32-2.51V418.46C720.39,417.54,718.14,416.59,716,415.47Z"/><polygon class="cls-14" points="721.43 457.76 719.94 458.63 719.81 457.64 721.49 457.09 721.43 457.76"/><path class="cls-15" d="M717.76,458.46h0a8,8,0,0,1-3.31-6.34V414.48l6.63,3.83V456C721.08,458.39,719.59,459.52,717.76,458.46Z"/><polygon class="cls-27" points="765.81 392.49 721.08 418.31 714.45 414.48 759.17 388.66 765.81 392.49"/><path class="cls-3" d="M716.41,454.05a2.71,2.71,0,0,0,1.4,2.33c.75.31,1.33-.25,1.31-1.24a2.74,2.74,0,0,0-1.4-2.34C717,452.5,716.38,453.06,716.41,454.05Z"/><path class="cls-41" d="M739,376.46a103.63,103.63,0,0,0-4.1,14.4A18.45,18.45,0,0,0,736.1,402l5.11-3c2.06-1.19,3.26-1.54,4.42-.23s-.53,3.28-.45,4.68c.12,2.35,1.42,3.78,1.78,2.91.57-1.41,4.09-3.52,4.92-7.29a17.4,17.4,0,0,0,0-6.22c-.43-4.22-2-6.09-.76-12.64A106.3,106.3,0,0,1,739,376.46Z"/><path class="cls-41" d="M739.94,409.19s1.32-2.53,2.76-3.36,3.69-1.26,3.16.12-.8,2.54-2.49,3.25A4.9,4.9,0,0,1,739.94,409.19Z"/><path class="cls-41" d="M744,407.73s1.32-2.53,2.76-3.36,3.69-1.25,3.16.12-.8,2.54-2.49,3.25A4.91,4.91,0,0,1,744,407.73Z"/><path class="cls-3" d="M939.78,212.91c-1.09,0-2.17,0-3.23-.1a1.85,1.85,0,0,1-1.72-2,1.82,1.82,0,0,1,1.95-1.71,46.22,46.22,0,0,0,10.57-.54,1.84,1.84,0,0,1,.62,3.63A49.83,49.83,0,0,1,939.78,212.91Zm-13.94-2.09a2,2,0,0,1-.54-.08,48.91,48.91,0,0,1-10.46-4.64,1.84,1.84,0,1,1,1.87-3.16,45.37,45.37,0,0,0,9.67,4.28,1.84,1.84,0,0,1-.54,3.6Zm32.38-1.65a1.84,1.84,0,0,1-.72-3.53,45.49,45.49,0,0,0,9.19-5.25,1.84,1.84,0,0,1,2.18,3A49.31,49.31,0,0,1,959,209,1.87,1.87,0,0,1,958.22,209.17ZM907,199.68a1.82,1.82,0,0,1-1.27-.51,48.76,48.76,0,0,1-7.25-8.85,1.83,1.83,0,1,1,3.09-2,45.75,45.75,0,0,0,6.71,8.18,1.84,1.84,0,0,1-1.28,3.16Zm68.81-3.49a1.85,1.85,0,0,1-1.41-3,45.79,45.79,0,0,0,5.85-8.82,1.84,1.84,0,1,1,3.28,1.66,49.12,49.12,0,0,1-6.32,9.53A1.83,1.83,0,0,1,975.82,196.19Zm-80.6-14.92a1.83,1.83,0,0,1-1.74-1.23A48.51,48.51,0,0,1,891,168.87a1.84,1.84,0,1,1,3.66-.37A45,45,0,0,0,897,178.83a1.83,1.83,0,0,1-1.13,2.34A1.8,1.8,0,0,1,895.22,181.27Zm90.47-4.61a1.58,1.58,0,0,1-.43,0,1.82,1.82,0,0,1-1.36-2.21,45.74,45.74,0,0,0,.29-19.67,1.84,1.84,0,0,1,3.61-.74,49.7,49.7,0,0,1,1,9.9,49.15,49.15,0,0,1-1.33,11.36A1.83,1.83,0,0,1,985.69,176.66ZM893,159.52l-.24,0a1.84,1.84,0,0,1-1.58-2.06,48.74,48.74,0,0,1,2.81-11.1,1.84,1.84,0,1,1,3.43,1.32,45.28,45.28,0,0,0-2.59,10.26A1.86,1.86,0,0,1,893,159.52Zm89.53-13.77a1.82,1.82,0,0,1-1.66-1.06,45.12,45.12,0,0,0-5.58-9,1.84,1.84,0,1,1,2.88-2.29,49,49,0,0,1,6,9.72,1.85,1.85,0,0,1-.89,2.45A2,2,0,0,1,982.53,145.75Zm-81.7-6.66a1.82,1.82,0,0,1-1-.32,1.84,1.84,0,0,1-.48-2.56,49.39,49.39,0,0,1,7.52-8.62,1.84,1.84,0,1,1,2.47,2.73,45.08,45.08,0,0,0-6.95,8A1.85,1.85,0,0,1,900.83,139.09Zm68.1-10.46a1.82,1.82,0,0,1-1.14-.4,45.39,45.39,0,0,0-9-5.53,1.84,1.84,0,1,1,1.54-3.34,49.43,49.43,0,0,1,9.76,6,1.85,1.85,0,0,1,.3,2.59A1.83,1.83,0,0,1,968.93,128.63ZM917,124.39a1.84,1.84,0,0,1-.89-3.45,48.86,48.86,0,0,1,10.6-4.32,1.84,1.84,0,0,1,1,3.55,44.91,44.91,0,0,0-9.8,4A1.9,1.9,0,0,1,917,124.39Zm32.05-4.93a2.19,2.19,0,0,1-.36,0,46.09,46.09,0,0,0-10.55-.86,1.81,1.81,0,0,1-1.9-1.77,1.83,1.83,0,0,1,1.77-1.9,49.47,49.47,0,0,1,11.4.92,1.84,1.84,0,0,1-.36,3.64Z"/><path class="cls-3" d="M1336.57,254.79q-1.46,0-2.88-.06a1.84,1.84,0,1,1,.16-3.68,61.44,61.44,0,0,0,10.68-.47,1.84,1.84,0,1,1,.49,3.65A64.25,64.25,0,0,1,1336.57,254.79Zm-13.72-1.53a2,2,0,0,1-.41,0,63.06,63.06,0,0,1-10.8-3.51,1.84,1.84,0,1,1,1.46-3.38,59.38,59.38,0,0,0,10.16,3.3,1.84,1.84,0,0,1-.41,3.64Zm32.67-1.45a1.84,1.84,0,0,1-.56-3.59,58.62,58.62,0,0,0,9.82-4.2,1.85,1.85,0,0,1,1.75,3.25,63.49,63.49,0,0,1-10.44,4.45A1.88,1.88,0,0,1,1355.52,251.81Zm-52.85-7.21a1.86,1.86,0,0,1-1-.3,63.6,63.6,0,0,1-8.86-7.09,1.84,1.84,0,0,1,2.54-2.66,58.93,58.93,0,0,0,8.35,6.68,1.84,1.84,0,0,1-1,3.37Zm72.18-3.19a1.84,1.84,0,0,1-1.15-3.28,60,60,0,0,0,7.73-7.38,1.84,1.84,0,1,1,2.77,2.42A64.66,64.66,0,0,1,1376,241,1.85,1.85,0,0,1,1374.85,241.41Zm-88-12a1.86,1.86,0,0,1-1.5-.76,63.9,63.9,0,0,1-5.81-9.74,1.84,1.84,0,1,1,3.31-1.6,60.33,60.33,0,0,0,5.48,9.18,1.83,1.83,0,0,1-1.48,2.92Zm102.47-4.52a1.88,1.88,0,0,1-.94-.26,1.84,1.84,0,0,1-.63-2.53,59.16,59.16,0,0,0,4.64-9.62,1.84,1.84,0,0,1,3.45,1.29,62.49,62.49,0,0,1-4.94,10.22A1.82,1.82,0,0,1,1389.3,224.89Zm-112-15.26a1.86,1.86,0,0,1-1.78-1.35,64.28,64.28,0,0,1-2-11.17,1.86,1.86,0,0,1,1.68-2,1.84,1.84,0,0,1,2,1.68,59.37,59.37,0,0,0,1.88,10.51,1.85,1.85,0,0,1-1.29,2.27A2,2,0,0,1,1277.32,209.63Zm119.7-5.29a1.84,1.84,0,0,1-1.81-2.17,60.1,60.1,0,0,0,0-21.12,1.84,1.84,0,1,1,3.62-.65,63.71,63.71,0,0,1,0,22.43A1.84,1.84,0,0,1,1397,204.34Zm-121.63-16.57h-.16a1.84,1.84,0,0,1-1.67-2,62.81,62.81,0,0,1,2-11.16,1.84,1.84,0,1,1,3.55,1,60.2,60.2,0,0,0-1.92,10.51A1.84,1.84,0,0,1,1275.39,187.77Zm118.77-15.84a1.85,1.85,0,0,1-1.73-1.2,59.51,59.51,0,0,0-4.61-9.63,1.84,1.84,0,0,1,3.16-1.88,63.62,63.62,0,0,1,4.9,10.23,1.84,1.84,0,0,1-1.08,2.37A1.8,1.8,0,0,1,1394.16,171.93Zm-112.91-5.32a1.9,1.9,0,0,1-.8-.18,1.84,1.84,0,0,1-.85-2.46,62.92,62.92,0,0,1,5.85-9.73,1.84,1.84,0,0,1,3,2.17,59.66,59.66,0,0,0-5.51,9.16A1.83,1.83,0,0,1,1281.25,166.61Zm101.69-13.54a1.85,1.85,0,0,1-1.39-.63,59.36,59.36,0,0,0-7.71-7.41,1.84,1.84,0,0,1,2.3-2.87,63.41,63.41,0,0,1,8.19,7.86,1.84,1.84,0,0,1-1.39,3Zm-88.74-4.19a1.84,1.84,0,0,1-1.27-3.17,63.65,63.65,0,0,1,8.89-7.06,1.84,1.84,0,0,1,2,3.07,60.35,60.35,0,0,0-8.37,6.65A1.84,1.84,0,0,1,1294.2,148.88Zm71.61-9.55a1.84,1.84,0,0,1-.87-.22,60,60,0,0,0-9.82-4.23,1.84,1.84,0,1,1,1.14-3.5,64.06,64.06,0,0,1,10.43,4.49,1.84,1.84,0,0,1-.88,3.46Zm-53.28-2.51a1.84,1.84,0,0,1-.72-3.54,63.06,63.06,0,0,1,10.81-3.48,1.84,1.84,0,0,1,.81,3.59,59.52,59.52,0,0,0-10.18,3.28A1.79,1.79,0,0,1,1312.53,136.82ZM1345,132.5h-.25A59.68,59.68,0,0,0,1334,132a1.87,1.87,0,0,1-1.91-1.77,1.84,1.84,0,0,1,1.76-1.91,65.12,65.12,0,0,1,11.33.53,1.84,1.84,0,0,1-.25,3.66Z"/></svg>